REM DIRINDEX 1\2\6,1\2\7,1\2\8,1\2\9,1\3\10,1\3\11,1\4\12,1\4\13,1\4\14,1\5\15,1\5\16,1\5\17
REM DIRNAME cjc029,folder01,folder02,folder03,folder04,folder05,folder06,folder07,folder08,folder09,folder10,folder11,folder12,folder13,folder14,folder15,folder16
TITLE ""
FILE "1400_3_sec03_0232_0248.mp3" MP3
  TRACK 01 AUDIO
    TITLE "0:"
    INDEX 01 00:00:00
  TRACK 02 AUDIO
    TITLE "17:cjc029_4892"
    INDEX 01 00:00:15
  TRACK 03 AUDIO
    TITLE "0:"
    INDEX 01 00:01:46
  TRACK 04 AUDIO
    TITLE "16:cjc029_4893"
    INDEX 01 00:01:52
  TRACK 05 AUDIO
    TITLE "0:"
    INDEX 01 00:02:61
  TRACK 06 AUDIO
    TITLE "17:cjc029_4894"
    INDEX 01 00:03:49
  TRACK 07 AUDIO
    TITLE "0:"
    INDEX 01 00:05:38
  TRACK 08 AUDIO
    TITLE "16:cjc029_4895"
    INDEX 01 00:05:46
  TRACK 09 AUDIO
    TITLE "0:"
    INDEX 01 00:06:41
  TRACK 10 AUDIO
    TITLE "17:cjc029_4896"
    INDEX 01 00:07:25
  TRACK 11 AUDIO
    TITLE "0:"
    INDEX 01 00:08:52
  TRACK 12 AUDIO
    TITLE "16:cjc029_4897"
    INDEX 01 00:08:58
  TRACK 13 AUDIO
    TITLE "0:"
    INDEX 01 00:09:65
  TRACK 14 AUDIO
    TITLE "17:cjc029_4898"
    INDEX 01 00:10:49
  TRACK 15 AUDIO
    TITLE "0:"
    INDEX 01 00:12:01
  TRACK 16 AUDIO
    TITLE "16:cjc029_4899"
    INDEX 01 00:12:09
  TRACK 17 AUDIO
    TITLE "0:"
    INDEX 01 00:13:10
  TRACK 18 AUDIO
    TITLE "17:cjc029_4900"
    INDEX 01 00:13:71
  TRACK 19 AUDIO
    TITLE "0:"
    INDEX 01 00:15:23
  TRACK 20 AUDIO
    TITLE "16:cjc029_4901"
    INDEX 01 00:15:30
  TRACK 21 AUDIO
    TITLE "0:"
    INDEX 01 00:16:38
  TRACK 22 AUDIO
    TITLE "17:cjc029_4902"
    INDEX 01 00:17:25
  TRACK 23 AUDIO
    TITLE "0:"
    INDEX 01 00:19:15
  TRACK 24 AUDIO
    TITLE "16:cjc029_4903"
    INDEX 01 00:19:18
  TRACK 25 AUDIO
    TITLE "0:"
    INDEX 01 00:20:26
  TRACK 26 AUDIO
    TITLE "17:cjc029_4904"
    INDEX 01 00:21:09
  TRACK 27 AUDIO
    TITLE "0:"
    INDEX 01 00:22:29
  TRACK 28 AUDIO
    TITLE "16:cjc029_4905"
    INDEX 01 00:22:32
  TRACK 29 AUDIO
    TITLE "0:"
    INDEX 01 00:23:46
  TRACK 30 AUDIO
    TITLE "17:cjc029_4906"
    INDEX 01 00:24:33
  TRACK 31 AUDIO
    TITLE "0:"
    INDEX 01 00:25:70
  TRACK 32 AUDIO
    TITLE "16:cjc029_4907"
    INDEX 01 00:26:01
  TRACK 33 AUDIO
    TITLE "0:"
    INDEX 01 00:27:20
  TRACK 34 AUDIO
    TITLE "17:cjc029_4908"
    INDEX 01 00:28:04
  TRACK 35 AUDIO
    TITLE "0:"
    INDEX 01 00:30:34
  TRACK 36 AUDIO
    TITLE "16:cjc029_4909"
    INDEX 01 00:30:40
  TRACK 37 AUDIO
    TITLE "0:"
    INDEX 01 00:31:43
  TRACK 38 AUDIO
    TITLE "17:cjc029_4910"
    INDEX 01 00:32:27
  TRACK 39 AUDIO
    TITLE "0:"
    INDEX 01 00:33:46
  TRACK 40 AUDIO
    TITLE "16:cjc029_4911"
    INDEX 01 00:33:54
  TRACK 41 AUDIO
    TITLE "0:"
    INDEX 01 00:34:55
  TRACK 42 AUDIO
    TITLE "17:cjc029_4912"
    INDEX 01 00:35:39
  TRACK 43 AUDIO
    TITLE "0:"
    INDEX 01 00:36:56
  TRACK 44 AUDIO
    TITLE "16:cjc029_4913"
    INDEX 01 00:36:64
  TRACK 45 AUDIO
    TITLE "0:"
    INDEX 01 00:37:63
  TRACK 46 AUDIO
    TITLE "17:cjc029_4914"
    INDEX 01 00:38:47
  TRACK 47 AUDIO
    TITLE "0:"
    INDEX 01 00:41:04
  TRACK 48 AUDIO
    TITLE "16:cjc029_4915"
    INDEX 01 00:41:08
  TRACK 49 AUDIO
    TITLE "0:"
    INDEX 01 00:42:23
  TRACK 50 AUDIO
    TITLE "17:cjc029_4916"
    INDEX 01 00:43:07
  TRACK 51 AUDIO
    TITLE "0:"
    INDEX 01 00:44:28
  TRACK 52 AUDIO
    TITLE "16:cjc029_4917"
    INDEX 01 00:44:32
  TRACK 53 AUDIO
    TITLE "0:"
    INDEX 01 00:45:33
  TRACK 54 AUDIO
    TITLE "17:cjc029_4918"
    INDEX 01 00:46:17
  TRACK 55 AUDIO
    TITLE "0:"
    INDEX 01 00:47:30
  TRACK 56 AUDIO
    TITLE "16:cjc029_4919"
    INDEX 01 00:47:36
  TRACK 57 AUDIO
    TITLE "0:"
    INDEX 01 00:48:38
  TRACK 58 AUDIO
    TITLE "17:cjc029_4920"
    INDEX 01 00:49:21
  TRACK 59 AUDIO
    TITLE "0:"
    INDEX 01 00:50:17
  TRACK 60 AUDIO
    TITLE "16:cjc029_4921"
    INDEX 01 00:50:25
  TRACK 61 AUDIO
    TITLE "0:"
    INDEX 01 00:51:20
  TRACK 62 AUDIO
    TITLE "17:cjc029_4922"
    INDEX 01 00:52:06
  TRACK 63 AUDIO
    TITLE "0:"
    INDEX 01 00:56:20
  TRACK 64 AUDIO
    TITLE "16:cjc029_4923"
    INDEX 01 00:56:24
  TRACK 65 AUDIO
    TITLE "0:"
    INDEX 01 00:57:25
  TRACK 66 AUDIO
    TITLE "17:cjc029_4924"
    INDEX 01 00:58:11
  TRACK 67 AUDIO
    TITLE "0:"
    INDEX 01 01:00:23
  TRACK 68 AUDIO
    TITLE "16:cjc029_4925"
    INDEX 01 01:00:33
  TRACK 69 AUDIO
    TITLE "0:"
    INDEX 01 01:01:38
